<?xml version="1.0" encoding="utf-8"?>
<!-- Generator: Adobe Illustrator 23.0.3, SVG Export Plug-In . SVG Version: 6.00 Build 0)  -->
<svg version="1.1" id="Layer_1" xmlns="http://www.w3.org/2000/svg" xmlns:xlink="http://www.w3.org/1999/xlink" x="0px" y="0px"
	 viewBox="0 0 1000 500" style="enable-background:new 0 0 1000 500;" xml:space="preserve">
<style type="text/css">
	.st0{fill:#222222;}
	.st1{fill:url(#SVGID_1_);}
	.st2{fill:url(#SVGID_2_);}
</style>
<rect class="st0" width="1000" height="500"/>
<linearGradient id="SVGID_1_" gradientUnits="userSpaceOnUse" x1="414.0355" y1="238.07" x2="586" y2="238.07" gradientTransform="matrix(1 0 0 -1 0 502)">
	<stop  offset="0" style="stop-color:#FFFFFF"/>
	<stop  offset="1" style="stop-color:#555555"/>
</linearGradient>
<path class="st1" d="M574.1,180l-158,158c-4.4,4.4-1.3,11.9,4.9,11.9h158c3.9,0,7-3.1,7-7V185C586,178.8,578.5,175.6,574.1,180z"/>
<linearGradient id="SVGID_2_" gradientUnits="userSpaceOnUse" x1="520.6866" y1="352" x2="520.6866" y2="238.07" gradientTransform="matrix(1 0 0 -1 0 502)">
	<stop  offset="0" style="stop-color:#FFFFFF"/>
	<stop  offset="1" style="stop-color:#555555"/>
</linearGradient>
<path class="st2" d="M575.5,162.5l-99.2,99.2c-4.6,4.6-12.5,1.4-12.5-5.2v-99.2c0-4.1,3.2-7.3,7.3-7.3h99.2
	C576.8,150,580.2,157.9,575.5,162.5z"/>
</svg>
