<?xml version="1.0" encoding="utf-8"?>
<!-- Generator: Adobe Illustrator 23.0.3, SVG Export Plug-In . SVG Version: 6.00 Build 0)  -->
<svg version="1.1" id="Layer_1" xmlns="http://www.w3.org/2000/svg" xmlns:xlink="http://www.w3.org/1999/xlink" x="0px" y="0px"
	 viewBox="0 0 1000 500" style="enable-background:new 0 0 1000 500;" xml:space="preserve">
<style type="text/css">
	.st0{fill:#222222;}
	.st1{fill:url(#SVGID_1_);}
	.st2{fill:url(#SVGID_2_);}
</style>
<rect class="st0" width="1000" height="500"/>
<g>
	<linearGradient id="SVGID_1_" gradientUnits="userSpaceOnUse" x1="405.6775" y1="255.0812" x2="595.4689" y2="255.0812">
		<stop  offset="0" style="stop-color:#FFFFFF"/>
		<stop  offset="1" style="stop-color:#555555"/>
	</linearGradient>
	<path class="st1" d="M595.5,167.5v175.2c0,4-3.2,7.2-7.2,7.2H412.9c-6.4,0-9.6-7.8-5.1-12.3l175.4-175.2
		C587.7,157.8,595.5,161.1,595.5,167.5z"/>
	<linearGradient id="SVGID_2_" gradientUnits="userSpaceOnUse" x1="527.2843" y1="150.1" x2="527.2843" y2="239.7531">
		<stop  offset="0" style="stop-color:#FFFFFF"/>
		<stop  offset="1" style="stop-color:#555555"/>
	</linearGradient>
	<path class="st2" d="M570.1,162.2l-75.7,75.4c-4.5,4.5-12.1,1.3-12.1-5v-75.4c0-3.9,3.2-7.1,7.1-7.1h75.7
		C571.5,150.1,574.6,157.8,570.1,162.2z"/>
</g>
</svg>
