<?xml version="1.0" encoding="utf-8"?>
<!-- Generator: Adobe Illustrator 23.0.3, SVG Export Plug-In . SVG Version: 6.00 Build 0)  -->
<svg version="1.1" id="Layer_1" xmlns="http://www.w3.org/2000/svg" xmlns:xlink="http://www.w3.org/1999/xlink" x="0px" y="0px"
	 viewBox="0 0 1000 500" style="enable-background:new 0 0 1000 500;" xml:space="preserve">
<style type="text/css">
	.st0{fill:#222222;}
	.st1{fill:url(#SVGID_1_);}
	.st2{fill:url(#SVGID_2_);}
</style>
<rect class="st0" width="1000" height="500"/>
<g>
	
		<linearGradient id="SVGID_1_" gradientUnits="userSpaceOnUse" x1="411.2781" y1="839.2407" x2="588.7219" y2="839.2407" gradientTransform="matrix(1 0 0 1 0 -578)">
		<stop  offset="0" style="stop-color:#FFFFFF"/>
		<stop  offset="1" style="stop-color:#555555"/>
	</linearGradient>
	<path class="st1" d="M576.4,174.6l-163,163c-4.5,4.5-1.3,12.3,5.1,12.3h163c4,0,7.2-3.2,7.2-7.2V179.8
		C588.7,173.4,581,170.1,576.4,174.6z"/>
	
		<linearGradient id="SVGID_2_" gradientUnits="userSpaceOnUse" x1="528.5818" y1="728.05" x2="528.5818" y2="824.8271" gradientTransform="matrix(1 0 0 1 0 -578)">
		<stop  offset="0" style="stop-color:#FFFFFF"/>
		<stop  offset="1" style="stop-color:#555555"/>
	</linearGradient>
	<path class="st2" d="M575.1,160.7L490.8,245c-3.9,3.9-10.6,1.2-10.6-4.4v-84.3c0-3.5,2.7-6.2,6.2-6.2h84.3
		C576.2,150.1,579.1,156.8,575.1,160.7z"/>
</g>
</svg>
