<?xml version="1.0" encoding="utf-8"?>
<!-- Generator: Adobe Illustrator 23.0.3, SVG Export Plug-In . SVG Version: 6.00 Build 0)  -->
<svg version="1.1" id="Layer_1" xmlns="http://www.w3.org/2000/svg" xmlns:xlink="http://www.w3.org/1999/xlink" x="0px" y="0px"
	 viewBox="0 0 1000 500" style="enable-background:new 0 0 1000 500;" xml:space="preserve">
<style type="text/css">
	.st0{fill:#222222;}
	.st1{fill:url(#SVGID_1_);}
	.st2{fill:url(#SVGID_2_);}
</style>
<rect class="st0" width="1000" height="500"/>
<g>
	
		<linearGradient id="SVGID_1_" gradientUnits="userSpaceOnUse" x1="414.0177" y1="841.98" x2="585.9822" y2="841.98" gradientTransform="matrix(1 0 0 1 0 -578)">
		<stop  offset="0" style="stop-color:#FFFFFF"/>
		<stop  offset="1" style="stop-color:#555555"/>
	</linearGradient>
	<path class="st1" d="M574.1,180.1l-158,158c-4.4,4.4-1.3,11.9,4.9,11.9h158c3.9,0,7-3.1,7-7V185.1
		C586,178.9,578.5,175.7,574.1,180.1z"/>
	
		<linearGradient id="SVGID_2_" gradientUnits="userSpaceOnUse" x1="516.2929" y1="728.05" x2="516.2929" y2="833.05" gradientTransform="matrix(1 0 0 1 0 -578)">
		<stop  offset="0" style="stop-color:#FFFFFF"/>
		<stop  offset="1" style="stop-color:#555555"/>
	</linearGradient>
	<path class="st2" d="M566.8,161.6l-91.5,91.5c-4.2,4.2-11.5,1.3-11.5-4.8v-91.5c0-3.8,3-6.7,6.7-6.7H562
		C568,150.1,571.1,157.3,566.8,161.6z"/>
</g>
</svg>
